{
  "asset": {
    "generator": "glTF-Transform v4.2.1",
    "version": "2.0"
  },
  "accessors": [
    {
      "type": "VEC3",
      "componentType": 5126,
      "count": 4,
      "max": [
        0,
        0,
        0
      ],
      "min": [
        0,
        0,
        0
      ],
      "bufferView": 0,
      "byteOffset": 0
    },
    {
      "type": "VEC3",
      "componentType": 5126,
      "count": 4,
      "bufferView": 0,
      "byteOffset": 12
    },
    {
      "type": "VEC2",
      "componentType": 5126,
      "count": 4,
      "bufferView": 0,
      "byteOffset": 24
    },
    {
      "type": "SCALAR",
      "componentType": 5123,
      "count": 6,
      "bufferView": 1,
      "byteOffset": 0
    },
    {
      "type": "SCALAR",
      "componentType": 5123,
      "count": 36,
      "bufferView": 1,
      "byteOffset": 12
    },
    {
      "type": "SCALAR",
      "componentType": 5123,
      "count": 744,
      "bufferView": 1,
      "byteOffset": 84
    },
    {
      "type": "VEC3",
      "componentType": 5126,
      "count": 24,
      "max": [
        0.5,
        -5.40196418762207,
        0.5000002384185791
      ],
      "min": [
        -0.5,
        -6.40196418762207,
        -0.4999997317790985
      ],
      "bufferView": 2,
      "byteOffset": 0
    },
    {
      "type": "VEC3",
      "componentType": 5126,
      "count": 24,
      "bufferView": 2,
      "byteOffset": 12
    },
    {
      "type": "VEC2",
      "componentType": 5126,
      "count": 24,
      "bufferView": 2,
      "byteOffset": 24
    },
    {
      "type": "VEC3",
      "componentType": 5126,
      "count": 124,
      "max": [
        45.435585021972656,
        7.634088516235352,
        76.72158813476562
      ],
      "min": [
        -45.435585021972656,
        -7.63408899307251,
        -76.72159576416016
      ],
      "bufferView": 3,
      "byteOffset": 0
    },
    {
      "type": "VEC2",
      "componentType": 5126,
      "count": 124,
      "bufferView": 3,
      "byteOffset": 12
    },
    {
      "type": "VEC3",
      "componentType": 5126,
      "count": 124,
      "bufferView": 3,
      "byteOffset": 20
    }
  ],
  "bufferViews": [
    {
      "buffer": 0,
      "byteOffset": 0,
      "byteLength": 128,
      "byteStride": 32,
      "target": 34962
    },
    {
      "buffer": 0,
      "byteOffset": 128,
      "byteLength": 1572,
      "target": 34963
    },
    {
      "buffer": 0,
      "byteOffset": 1700,
      "byteLength": 768,
      "byteStride": 32,
      "target": 34962
    },
    {
      "buffer": 0,
      "byteOffset": 2468,
      "byteLength": 3968,
      "byteStride": 32,
      "target": 34962
    }
  ],
  "buffers": [
    {
      "uri": "buffer.bin",
      "byteLength": 6436
    }
  ],
  "materials": [
    {
      "name": "03 - Default",
      "doubleSided": true,
      "pbrMetallicRoughness": {
        "baseColorFactor": [
          0.7764706611633301,
          0.7764706611633301,
          0.7764706611633301,
          1
        ],
        "roughnessFactor": 0.5,
        "metallicFactor": 0
      },
      "extensions": {
        "KHR_materials_specular": {
          "specularColorFactor": [
            0.8999999761581421,
            0.8999999761581421,
            0.8999999761581421
          ]
        }
      }
    },
    {
      "name": "SoapBubble",
      "doubleSided": true,
      "pbrMetallicRoughness": {
        "baseColorFactor": [
          0.6038273388475408,
          0.6038273388475408,
          0.6038273388475408,
          1
        ],
        "metallicFactor": 0
      }
    },
    {
      "name": "Paint Metal Flake",
      "doubleSided": true,
      "pbrMetallicRoughness": {
        "baseColorFactor": [
          0.6038273388475408,
          0.6038273388475408,
          0.6038273388475408,
          1
        ],
        "metallicFactor": 0
      }
    }
  ],
  "meshes": [
    {
      "primitives": [
        {
          "attributes": {
            "POSITION": 0,
            "NORMAL": 1,
            "TEXCOORD_0": 2
          },
          "mode": 4,
          "material": 0,
          "indices": 3
        }
      ]
    },
    {
      "primitives": [
        {
          "attributes": {
            "POSITION": 6,
            "NORMAL": 7,
            "TEXCOORD_0": 8
          },
          "mode": 4,
          "material": 1,
          "indices": 4
        }
      ]
    },
    {
      "primitives": [
        {
          "attributes": {
            "POSITION": 9,
            "TEXCOORD_0": 10,
            "NORMAL": 11
          },
          "mode": 4,
          "material": 2,
          "indices": 5
        }
      ]
    }
  ],
  "nodes": [
    {
      "name": "Object_2_68"
    },
    {
      "name": "Object_2_82"
    },
    {
      "name": "Object_2_96"
    },
    {
      "name": "Object_2_110"
    },
    {
      "name": "Object_2_124"
    },
    {
      "name": "Object_2_138"
    },
    {
      "name": "Object_2_152"
    },
    {
      "name": "Object_2_166"
    },
    {
      "name": "Object_2_180"
    },
    {
      "name": "Object_2_194"
    },
    {
      "name": "Object_2_208"
    },
    {
      "name": "Object_2_222"
    },
    {
      "name": "Object_2_236"
    },
    {
      "name": "Object_2_250"
    },
    {
      "name": "Object_2_264"
    },
    {
      "name": "Object_2_278"
    },
    {
      "name": "Object_2_292"
    },
    {
      "name": "Object_2_306"
    },
    {
      "name": "Object_2_320"
    },
    {
      "name": "Object_2_334"
    },
    {
      "name": "Object_2_348"
    },
    {
      "name": "Object_2_362"
    },
    {
      "name": "Object_1_365"
    },
    {
      "name": "Object_2_366",
      "children": [
        24,
        25,
        26,
        27,
        28,
        29,
        30,
        31
      ]
    },
    {
      "name": "Spot01"
    },
    {
      "name": "Spot01.Target",
      "translation": [
        3.3356475830078125,
        9.29351806640625,
        9.640335083007812
      ],
      "rotation": [
        0.040392256835378657,
        -0.4823174866616791,
        0.7059521806639065,
        0.5170781626253239
      ]
    },
    {
      "name": "Spot02"
    },
    {
      "name": "Spot02.Target",
      "translation": [
        4.194305419921875,
        9.29351806640625,
        13.279541015625
      ],
      "rotation": [
        0.49086907173640765,
        -0.028619952119782573,
        0.5089671602461376,
        0.7065273402666604
      ]
    },
    {
      "name": "Spot03"
    },
    {
      "name": "Spot03.Target",
      "translation": [
        3.3356401920318604,
        16.66766357421875,
        10.094085693359375
      ],
      "rotation": [
        -0.34910002625932296,
        0.18404842370433838,
        0.8349398769615297,
        0.3835762652421992
      ]
    },
    {
      "name": "Plane01",
      "translation": [
        0.6686553955078125,
        0,
        0.6686553955078125
      ],
      "scale": [
        1.1716951131820679,
        1.1716951131820679,
        1.1716951131820679
      ],
      "mesh": 0
    },
    {
      "name": "billboard",
      "translation": [
        0,
        76.93694305419922,
        6.555819511413574
      ],
      "children": [
        32,
        33
      ]
    },
    {
      "name": "Box02",
      "translation": [
        -2.8656398853854625e-7,
        16.801864624023438,
        0.000003814697265625
      ],
      "rotation": [
        0.7071067966408576,
        0,
        0,
        0.7071067657322372
      ],
      "mesh": 1
    },
    {
      "name": "Box01",
      "rotation": [
        0.7071067966408576,
        0,
        0,
        0.7071067657322372
      ],
      "mesh": 2
    },
    {
      "name": "Object_1_548"
    },
    {
      "name": "Object_1_550"
    },
    {
      "name": "Object_1_636"
    }
  ],
  "scenes": [
    {
      "name": "empty_1",
      "nodes": [
        0,
        1,
        2,
        3,
        4,
        5,
        6,
        7,
        8,
        9,
        10,
        11,
        12,
        13,
        14,
        15,
        16,
        17,
        18,
        19,
        20,
        21,
        22,
        23,
        34,
        35,
        36
      ]
    }
  ],
  "scene": 0,
  "extensionsUsed": [
    "KHR_materials_specular"
  ]
}